<?xml version="1.0" standalone="no"?>
<!DOCTYPE svg PUBLIC "-//W3C//DTD SVG 20010904//EN"
 "http://www.w3.org/TR/2001/REC-SVG-20010904/DTD/svg10.dtd">
<svg version="1.0" xmlns="http://www.w3.org/2000/svg"
 width="2123.000000pt" height="2123.000000pt" viewBox="0 0 2123.000000 2123.000000"
 preserveAspectRatio="xMidYMid meet">
<metadata>
</metadata>
<g transform="translate(0.000000,2123.000000) scale(0.100000,-0.100000)"
fill="#000000" stroke="none">
<path d="M2007 13914 c-1 -1 -38 -4 -82 -8 -145 -11 -308 -47 -378 -82 -45
-23 -195 -130 -472 -338 -453 -339 -794 -616 -947 -769 -123 -123 -141 -164
-105 -229 29 -53 76 -73 157 -69 153 9 403 2 501 -14 13 -2 49 -6 80 -10 31
-3 65 -7 75 -9 11 -2 40 -6 65 -10 56 -8 96 -15 129 -21 14 -3 36 -7 50 -10
14 -3 50 -10 80 -17 30 -6 57 -12 60 -13 3 0 28 -7 55 -14 397 -107 648 -232
823 -411 46 -47 158 -179 250 -295 91 -115 190 -239 219 -275 30 -36 67 -81
82 -100 68 -83 504 -617 519 -635 9 -11 35 -42 57 -70 22 -27 45 -54 51 -60 5
-5 28 -32 49 -60 22 -27 47 -59 57 -70 9 -11 125 -153 258 -315 133 -162 251
-306 262 -319 41 -48 334 -404 358 -435 14 -18 57 -70 96 -116 39 -47 254
-308 479 -580 225 -272 427 -515 449 -539 120 -128 272 -271 315 -295 9 -5 18
-12 21 -16 8 -11 120 -84 181 -118 82 -46 189 -89 298 -118 53 -14 141 -41
196 -59 87 -29 172 -50 278 -69 142 -25 423 -26 547 -1 14 3 39 7 55 9 53 7
208 46 290 73 336 109 577 248 1110 636 480 350 694 476 1019 602 78 29 159
58 181 64 22 5 83 21 135 35 94 25 218 50 315 61 28 4 61 9 75 12 59 12 539
11 645 -2 264 -32 566 -109 763 -196 114 -50 293 -140 365 -183 43 -25 80 -46
82 -46 2 0 33 -20 69 -45 37 -25 69 -45 72 -45 2 0 10 -5 17 -10 7 -6 44 -33
82 -60 78 -54 100 -71 265 -192 141 -104 426 -302 460 -320 14 -7 27 -15 30
-18 21 -23 286 -164 402 -214 149 -63 376 -132 501 -150 37 -6 57 -9 151 -21
54 -7 306 -8 346 -1 14 3 48 7 75 11 83 10 223 45 346 86 64 21 124 39 133 39
32 0 193 61 293 111 225 114 464 331 743 678 19 24 40 48 45 55 6 6 139 166
295 356 156 190 287 347 290 350 3 3 24 27 45 55 22 27 50 61 61 75 12 14 59
70 104 125 45 55 96 118 115 140 101 123 158 192 168 205 7 8 116 140 242 294
127 153 241 292 255 310 13 17 108 133 210 257 102 124 201 245 220 269 40 49
453 554 479 585 9 11 43 54 76 95 33 41 62 77 65 80 9 8 158 196 231 290 71
91 130 146 238 221 72 51 251 143 346 179 33 12 76 28 95 36 19 7 62 21 95 29
33 9 71 21 85 26 14 5 34 11 45 13 11 2 76 16 145 31 69 15 136 28 150 30 14
2 68 11 120 19 52 8 122 17 155 20 33 3 80 8 105 10 150 16 315 21 360 11 14
-3 51 -6 82 -6 67 -2 119 25 144 74 43 81 -12 153 -321 418 -310 266 -1143
894 -1230 927 -51 19 -188 53 -240 58 -27 3 -77 9 -110 13 -133 15 -352 1
-531 -35 -44 -8 -92 -18 -109 -20 -73 -13 -337 -110 -444 -163 -251 -125 -411
-250 -573 -450 -38 -47 -86 -105 -105 -128 -46 -56 -428 -530 -651 -808 -97
-121 -179 -222 -182 -225 -3 -3 -71 -86 -150 -185 -222 -276 -360 -448 -378
-470 -10 -11 -60 -74 -112 -140 -52 -66 -102 -129 -112 -140 -17 -21 -80 -99
-101 -125 -7 -8 -32 -40 -57 -71 -25 -30 -56 -71 -70 -89 -14 -18 -29 -38 -35
-44 -5 -6 -41 -49 -78 -96 -37 -47 -79 -97 -92 -113 -14 -15 -25 -31 -25 -36
0 -5 -3 -11 -8 -13 -4 -1 -23 -23 -42 -48 -19 -25 -37 -47 -40 -50 -3 -3 -94
-115 -202 -250 -235 -295 -333 -393 -503 -502 -146 -95 -310 -166 -480 -208
-104 -26 -129 -31 -250 -46 -67 -8 -225 -8 -305 0 -56 6 -95 13 -234 42 -56
11 -193 62 -281 104 -99 47 -248 144 -650 421 -542 374 -744 489 -1060 604
-79 29 -208 68 -266 81 -10 2 -28 6 -40 9 -11 2 -28 6 -37 9 -9 3 -37 8 -62
11 -24 4 -47 8 -50 10 -5 3 -88 13 -204 23 -114 11 -360 4 -456 -13 -14 -2
-43 -6 -65 -9 -174 -20 -423 -93 -645 -188 -120 -51 -334 -160 -361 -184 -8
-8 -19 -14 -23 -14 -9 0 -346 -222 -501 -330 -425 -296 -565 -387 -669 -436
-217 -101 -434 -149 -676 -148 -85 1 -221 11 -250 19 -8 2 -26 6 -40 9 -374
69 -731 286 -971 591 -54 69 -522 655 -546 685 -7 8 -37 47 -68 85 -31 39 -62
77 -69 85 -7 9 -131 164 -276 345 -145 182 -266 332 -269 335 -4 3 -18 21 -33
42 -15 20 -33 42 -40 50 -7 7 -58 69 -113 138 -55 69 -105 132 -112 140 -7 8
-99 123 -206 255 -503 626 -844 1046 -894 1102 -268 306 -800 543 -1293 579
-86 6 -200 10 -203 8z"/>
</g>
</svg>
